<?xml version="1.0" standalone="no"?>
<!DOCTYPE svg PUBLIC "-//W3C//DTD SVG 20010904//EN"
 "http://www.w3.org/TR/2001/REC-SVG-20010904/DTD/svg10.dtd">
<svg version="1.0" xmlns="http://www.w3.org/2000/svg"
 width="497.000000pt" height="502.000000pt" viewBox="0 0 497.000000 502.000000"
 preserveAspectRatio="xMidYMid meet">

<g transform="translate(0.000000,502.000000) scale(0.100000,-0.100000)"
fill="#000000" stroke="none">
<path d="M2250 4374 c-99 -15 -279 -67 -389 -112 -67 -27 -228 -123 -296 -175
-206 -159 -359 -354 -465 -592 -110 -246 -146 -429 -137 -695 4 -130 11 -186
31 -265 83 -332 241 -605 475 -818 86 -79 171 -147 185 -147 2 0 41 -23 87
-51 77 -48 235 -121 322 -149 23 -7 37 -18 37 -28 -1 -72 -98 -311 -154 -380
-40 -49 -57 -83 -54 -105 2 -18 11 -23 46 -25 110 -8 369 73 510 160 122 74
294 224 367 318 38 50 48 56 98 67 121 25 404 168 516 260 255 210 415 434
521 733 117 327 115 657 -4 1003 -32 91 -131 283 -191 369 -78 112 -201 247
-292 319 -75 60 -266 179 -328 205 -64 26 -257 84 -335 101 -108 22 -427 27
-550 7z m-2 -128 c9 -20 8 -27 -5 -37 -12 -11 -14 -27 -10 -84 3 -38 9 -80 12
-92 6 -20 3 -21 -72 -28 -43 -4 -130 -18 -193 -31 -63 -12 -139 -26 -167 -30
-68 -9 -80 -22 -63 -74 7 -22 21 -47 32 -56 10 -10 18 -21 18 -25 0 -11 -188
-105 -305 -154 -113 -46 -122 -54 -106 -93 17 -41 57 -77 114 -102 26 -11 47
-23 47 -26 0 -2 -27 -64 -59 -137 -79 -178 -126 -291 -144 -355 -9 -29 -33
-94 -53 -145 -46 -115 -50 -196 -15 -270 41 -84 92 -102 173 -61 15 8 29 14
33 14 3 0 5 -21 5 -48 0 -114 26 -256 64 -347 32 -76 169 -195 225 -195 21 0
71 53 71 76 0 8 4 14 9 14 5 0 16 -30 25 -67 8 -38 35 -126 60 -198 25 -71 44
-131 42 -132 -9 -10 -211 107 -296 171 -244 185 -410 418 -509 716 -78 232
-79 590 -2 820 83 247 197 428 383 606 147 141 315 236 528 297 68 20 85 29
92 48 8 23 34 49 48 49 4 0 12 -11 18 -24z m417 -17 c176 -21 383 -91 542
-181 166 -93 350 -277 455 -453 145 -243 195 -415 205 -706 5 -135 3 -171 -17
-270 -12 -63 -28 -134 -35 -159 -41 -144 -176 -388 -275 -500 -99 -111 -150
-163 -175 -179 -13 -9 -57 -41 -97 -72 -75 -58 -190 -122 -242 -135 -26 -6
-28 -5 -22 12 5 10 25 65 47 121 35 92 44 123 64 218 l7 30 15 -30 c20 -40 53
-75 70 -75 47 0 184 123 223 200 52 104 70 181 70 306 0 63 2 114 5 114 3 0
18 -9 33 -20 15 -11 44 -23 63 -26 28 -5 41 -1 66 20 75 63 93 176 48 296
-123 334 -143 385 -224 568 -23 51 -41 96 -41 100 0 4 12 13 28 19 75 34 148
127 122 158 -6 7 -36 22 -68 33 -90 33 -241 128 -312 196 -113 108 -315 228
-431 256 -24 6 -119 28 -210 50 -169 40 -276 77 -261 92 24 24 210 34 347 17z
m-175 -205 c376 -89 474 -134 647 -296 78 -73 168 -136 238 -165 25 -10 44
-22 42 -27 -5 -14 -67 -34 -109 -35 -20 -1 -39 -5 -43 -11 -3 -5 7 -27 22 -48
43 -60 122 -233 230 -502 89 -223 98 -252 101 -322 3 -46 0 -78 -6 -78 -17 0
-87 52 -140 106 -48 47 -87 73 -97 62 -1 -1 2 -50 7 -108 12 -132 4 -328 -17
-400 -22 -74 -89 -173 -137 -200 -43 -24 -39 -28 -62 65 -34 140 -66 189 -126
197 l-25 3 -6 -175 c-6 -191 -13 -222 -79 -386 -34 -83 -71 -148 -155 -272
-12 -18 -68 -80 -125 -138 -120 -123 -283 -237 -411 -288 -83 -33 -149 -51
-149 -40 0 3 11 24 24 47 14 23 39 85 57 137 26 79 32 115 36 210 4 119 -5
202 -22 201 -5 0 -12 -10 -15 -22 -6 -23 -6 -23 -27 6 -29 43 -56 98 -92 190
-58 151 -64 188 -66 363 -1 89 -4 165 -8 168 -9 10 -63 -24 -94 -59 -18 -21
-41 -68 -59 -125 -19 -60 -34 -92 -44 -92 -24 0 -97 86 -132 157 l-33 68 0
180 c0 99 3 212 8 252 7 70 6 72 -13 65 -11 -4 -52 -35 -92 -68 -66 -55 -125
-94 -144 -94 -4 0 -4 31 0 70 6 67 20 108 131 390 19 47 41 108 50 135 19 57
127 276 156 317 l20 27 -38 6 c-53 9 -123 35 -123 46 0 5 6 9 14 9 7 0 60 23
117 52 66 33 148 63 225 84 66 17 134 38 149 46 l28 15 -70 27 c-39 15 -80 37
-92 50 l-23 24 54 11 c78 16 323 31 396 24 34 -3 62 -2 62 3 0 5 -11 36 -25
69 -32 78 -33 99 -2 91 12 -4 51 -13 87 -22z"/>
<path d="M2067 3531 c-148 -49 -274 -182 -311 -329 -31 -123 -13 -305 40 -403
77 -140 220 -244 380 -274 93 -18 519 -21 627 -4 177 28 332 144 401 301 37
84 60 208 52 286 -9 86 -57 208 -107 271 -48 60 -142 125 -221 152 -113 38
-274 21 -378 -41 l-47 -28 -83 42 c-80 39 -87 41 -189 43 -83 2 -119 -1 -164
-16z m251 -109 c27 -11 70 -33 95 -50 61 -42 103 -42 164 0 69 47 134 68 211
68 98 0 153 -22 226 -91 104 -97 145 -213 125 -354 -12 -86 -34 -139 -86 -207
-48 -63 -83 -93 -153 -129 -44 -24 -50 -24 -373 -27 -367 -3 -395 0 -493 63
-65 42 -134 137 -164 225 -32 94 -26 232 13 309 51 99 118 163 207 194 63 22
169 21 228 -1z"/>
<path d="M2140 3252 c-45 -22 -73 -74 -64 -122 14 -81 77 -119 157 -96 106 30
117 180 16 220 -49 20 -65 19 -109 -2z"/>
<path d="M2743 3255 c-67 -29 -87 -113 -43 -179 63 -92 205 -56 217 56 7 60
-9 94 -56 118 -47 23 -74 25 -118 5z"/>
<path d="M2202 2888 c-18 -18 -14 -56 7 -77 57 -57 175 -85 326 -78 117 7 158
16 217 54 40 25 58 65 41 92 -16 26 -42 25 -97 -6 -50 -27 -55 -28 -201 -28
-146 0 -151 1 -197 28 -51 29 -77 34 -96 15z"/>
<path d="M3429 1239 c-27 -51 0 -69 28 -20 21 36 21 37 1 37 -11 0 -24 -8 -29
-17z m12 -12 c-10 -9 -11 -8 -5 6 3 10 9 15 12 12 3 -3 0 -11 -7 -18z"/>
<path d="M3650 1246 c0 -9 -4 -15 -9 -12 -16 10 -33 -23 -26 -51 5 -20 9 -23
15 -14 6 11 9 10 12 -5 3 -11 7 -2 12 24 7 39 9 42 22 25 7 -10 14 -13 14 -7
0 6 -9 21 -20 34 -17 19 -20 20 -20 6z"/>
</g>
</svg>
